:SAMPLES-PER-SECOND 30
:FULLY-SPECIFIED
:DEGREES
138
root  -25.9396 40.7325 -28.9781 175.162 -2.3188 178.294
RightUpLeg  -7.0293 -8.64461 -2.64095
RightLeg  12.4184 -1.67574 4.00928
RightFoot  1.61513 0.800869 -6.94057
RightToes  1.74622e-010 0 -3.6325e-017
Spine  4.24881 0.930251 11.7971
Spine1  9.72798 2.954 -5.71755
HEad  -14.6413 -4.37606 -1.10474
LeftShoulder1  8.44462 -11.9117 -47.8089
LeftArm  -12.8093 25.7295 -29.499
LeftForeArm  23.3147 -23.9716 -3.89925
LeftHand  -0.244104 0.0205437 5.32207
RightShoulder  6.75278 10.3538 42.433
RightArm  12.8191 -8.97466 31.8736
RightForeArm  -7.08435 21.1828 5.56193
RightHand  -1.4208 3.4436 -18.7701
LeftUpLeg  -12.1239 6.99282 2.35136
LeftLeg  23.218 2.78579 1.63403
LeftFoot  -6.20367 0.257181 -4.91694
LeftToes  -2.63786e-011 -1.12672e-010 -2.07835e-011
139
root  -25.9966 40.7679 -29.6366 175.228 -0.953829 178.804
RightUpLeg  -6.15105 -8.77995 -2.18167
RightLeg  12.4653 -0.471689 4.37721
RightFoot  0.89529 0.753688 -6.95918
RightToes  1.74622e-010 0 -3.6325e-017
Spine  3.49215 1.15654 12.4397
Spine1  10.0954 3.22442 -5.99421
HEad  -13.6361 -3.50134 -1.84843
LeftShoulder1  8.3729 -11.7664 -47.8536
LeftArm  -13.2902 25.7173 -29.3369
LeftForeArm  23.503 -24.4512 -3.99381
LeftHand  -0.244104 0.0205437 5.32207
RightShoulder  6.74448 10.273 42.6423
RightArm  12.484 -9.09868 32.0963
RightForeArm  -5.88752 20.0321 5.84527
RightHand  -1.44145 3.65249 -18.6131
LeftUpLeg  -9.67262 5.5602 3.40084
LeftLeg  17.985 2.41491 1.20614
LeftFoot  -5.18974 0.252246 -4.10908
LeftToes  -2.63786e-011 -1.12672e-010 -2.07835e-011
140
root  -26.0629 40.8091 -30.259 175.485 0.371296 179.523
RightUpLeg  -5.23905 -8.48268 -1.49239
RightLeg  11.9446 0.347037 4.62243
RightFoot  0.383464 0.713125 -6.90557
RightToes  1.74622e-010 0 -3.6325e-017
Spine  2.54737 1.2865 12.683
Spine1  10.4608 3.18796 -5.69095
HEad  -12.9302 -2.1716 -2.70712
LeftShoulder1  8.32125 -11.6017 -48.0784
LeftArm  -13.6123 25.7832 -29.0055
LeftForeArm  23.6553 -24.7337 -4.04497
LeftHand  -0.244104 0.0205437 5.32207
RightShoulder  6.78153 10.2458 42.9806
RightArm  11.2982 -9.48269 31.8583
RightForeArm  -3.67465 18.9242 6.12552
RightHand  -1.42857 3.75927 -18.2443
LeftUpLeg  -7.47405 6.03225 4.62691
LeftLeg  14.354 1.54773 0.665525
LeftFoot  -3.58342 0.293645 -4.0066
LeftToes  -2.63786e-011 -1.12672e-010 -2.07835e-011
141
root  -26.1078 40.9068 -30.8381 175.718 1.27753 179.863
RightUpLeg  -4.0659 -7.81111 -1.11673
RightLeg  10.8081 0.614615 4.55177
RightFoot  0.243429 0.692005 -6.79175
RightToes  1.74622e-010 0 -3.6325e-017
Spine  1.50504 1.24279 11.7434
Spine1  11.1621 2.77638 -4.70569
HEad  -12.7548 -0.650883 -3.27895
LeftShoulder1  8.3398 -11.5217 -48.4449
LeftArm  -13.009 25.3593 -28.2201
LeftForeArm  23.6025 -24.3206 -3.95598
LeftHand  -0.244104 0.0205437 5.32207
RightShoulder  6.9563 10.3669 43.7449
RightArm  8.77361 -9.90191 30.9194
RightForeArm  -1.35384 17.6169 6.44883
RightHand  -1.4215 3.74226 -18.1889
LeftUpLeg  -5.45091 6.69139 5.40317
LeftLeg  11.8293 1.53115 0.133948
LeftFoot  -2.25729 0.324804 -3.92144
LeftToes  -2.63786e-011 -1.12672e-010 -2.07835e-011
142
root  -26.1312 41.0486 -31.3594 175.988 1.60832 179.593
RightUpLeg  -2.89396 -7.30891 -1.34926
RightLeg  9.44741 0.597415 4.27275
RightFoot  0.289609 0.662677 -6.47462
RightToes  1.74622e-010 0 -3.6325e-017
Spine  0.43922 1.06679 9.74862
Spine1  11.9132 2.17066 -3.47061
HEad  -12.7721 0.627957 -3.34995
LeftShoulder1  8.30967 -11.4693 -48.4384
LeftArm  -11.2581 24.1049 -27.0992
LeftForeArm  23.2313 -22.6302 -3.71517
LeftHand  -0.244104 0.0205437 5.32207
RightShoulder  7.12276 10.4694 44.5011
RightArm  4.82994 -10.507 29.7936
RightForeArm  1.14898 15.8629 6.80336
RightHand  -1.52758 4.17299 -18.657
LeftUpLeg  -3.76292 6.43657 5.3496
LeftLeg  9.76093 2.47356 -0.32831
LeftFoot  -1.62714 0.292384 -3.32594
LeftToes  -2.63786e-011 -1.12672e-010 -2.07835e-011
143
root  -26.1578 41.1822 -31.8286 176.515 1.54114 179.087
RightUpLeg  -2.07956 -7.10372 -1.86301
RightLeg  8.16679 0.434924 3.98866
RightFoot  0.260458 0.617167 -6.04658
RightToes  1.74622e-010 0 -3.6325e-017
Spine  -0.646048 0.853115 7.70815
Spine1  12.1829 1.6367 -2.58683
HEad  -12.4906 1.468 -2.99037
LeftShoulder1  8.0762 -11.3121 -47.5646
LeftArm  -9.55632 22.3311 -25.7972
LeftForeArm  23.1842 -19.7968 -3.70535
LeftHand  -0.244104 0.0205437 5.32207
RightShoulder  7.09595 10.4116 44.5172
RightArm  0.400175 -11.58 28.9274
RightForeArm  4.44361 13.8945 6.95478
RightHand  -1.70448 5.12559 -18.9511
LeftUpLeg  -2.44989 5.56539 4.94267
LeftLeg  7.47171 3.52708 -0.927808
LeftFoot  -1.16449 0.246767 -2.68921
LeftToes  -2.63786e-011 -1.12672e-010 -2.07835e-011
144
root  -26.2154 41.2811 -32.2682 177.231 1.35774 178.809
RightUpLeg  -1.48312 -6.98746 -2.19313
RightLeg  6.86672 0.200428 3.79013
RightFoot  0.203659 0.582417 -5.73836
RightToes  1.74622e-010 0 -3.6325e-017
Spine  -1.69168 0.624699 6.48865
Spine1  11.9267 1.27832 -2.3708
HEad  -11.8472 1.95318 -2.41736
LeftShoulder1  7.60704 -10.9679 -45.823
LeftArm  -9.20935 20.4785 -24.1913
LeftForeArm  23.8356 -16.6737 -4.07945
LeftHand  -0.244104 0.0205437 5.32207
RightShoulder  6.87452 10.2448 43.6089
RightArm  -3.22925 -12.885 27.8739
RightForeArm  7.71056 12.2105 6.78723
RightHand  -1.75794 5.71658 -18.5198
LeftUpLeg  -1.35161 4.86528 4.80246
LeftLeg  5.02961 4.10038 -1.72013
LeftFoot  -0.492981 0.238919 -2.46162
LeftToes  -2.63786e-011 -1.12672e-010 -2.07835e-011
145
root  -26.3117 41.3529 -32.6844 177.829 1.17964 178.785
RightUpLeg  -0.72024 -6.90996 -2.3381
RightLeg  5.42344 0.0263976 3.67441
RightFoot  0.229572 0.565186 -5.55405
RightToes  1.74622e-010 0 -3.6325e-017
Spine  -2.53022 0.375805 5.98255
Spine1  11.5084 1.01645 -2.5797
HEad  -11.1749 2.18781 -1.8886
LeftShoulder1  6.92898 -10.375 -43.4144
LeftArm  -9.99158 18.6877 -22.2127
LeftForeArm  24.0885 -14.3029 -4.36683
LeftHand  -0.244104 0.0205437 5.32207
RightShoulder  6.48888 9.97292 41.8915
RightArm  -6.00856 -13.796 26.0455
RightForeArm  9.13474 10.902 6.46203
RightHand  -1.62618 5.30664 -17.8071
LeftUpLeg  -0.381382 4.69781 4.88464
LeftLeg  3.09639 4.15196 -2.42295
LeftFoot  0.0312925 0.234364 -2.35746
LeftToes  -2.63786e-011 -1.12672e-010 -2.07835e-011
146
root  -26.4272 41.4007 -33.0653 178.247 1.01061 178.769
RightUpLeg  0.079304 -6.91267 -2.556
RightLeg  4.20712 -0.052976 3.62773
RightFoot  0.168221 0.541442 -5.35278
RightToes  1.74622e-010 0 -3.6325e-017
Spine  -3.10405 0.160968 5.5031
Spine1  11.0215 0.769235 -2.66236
HEad  -10.5927 2.18579 -1.58347
LeftShoulder1  6.05793 -9.47545 -40.3762
LeftArm  -11.2457 17.0767 -19.9688
LeftForeArm  23.1224 -13.4148 -4.26971
LeftHand  -0.244104 0.0205437 5.32207
RightShoulder  5.83321 9.3793 39.1713
RightArm  -8.70949 -14.1058 23.6277
RightForeArm  8.14087 9.82486 6.04641
RightHand  -1.45308 4.39522 -17.3932
LeftUpLeg  0.358095 4.76716 4.81869
LeftLeg  1.91013 3.97988 -2.80891
LeftFoot  0.150719 0.204803 -2.04454
LeftToes  -2.63786e-011 -1.12672e-010 -2.07835e-011
147
root  -26.5388 41.4311 -33.4089 178.733 0.907258 178.715
RightUpLeg  0.486882 -6.94673 -2.80227
RightLeg  3.50237 -0.046137 3.5931
RightFoot  -0.0338321 0.506835 -5.11447
RightToes  1.74622e-010 0 -3.6325e-017
Spine  -3.54724 0.0628014 4.81658
Spine1  10.1837 0.568656 -2.40907
HEad  -9.75868 2.00249 -1.43999
LeftShoulder1  5.06561 -8.31307 -36.7274
LeftArm  -12.6742 15.9069 -17.3772
LeftForeArm  21.616 -14.1445 -3.90496
LeftHand  -0.244104 0.0205437 5.32207
RightShoulder  4.8832 8.29714 35.3927
RightArm  -11.3484 -14.1403 20.9045
RightForeArm  6.2315 9.09438 5.52914
RightHand  -1.37308 3.97575 -17.1682
LeftUpLeg  0.832303 4.71333 4.58691
LeftLeg  0.935629 3.92569 -2.9523
LeftFoot  0.230122 0.168374 -1.67629
LeftToes  -2.63786e-011 -1.12672e-010 -2.07835e-011
148
root  -26.6391 41.4536 -33.7274 179.382 0.928047 178.728
RightUpLeg  0.430292 -6.85908 -2.88959
RightLeg  3.2096 -0.0337195 3.50082
RightFoot  -0.229064 0.474356 -4.88575
RightToes  1.74622e-010 0 -3.6325e-017
Spine  -3.95719 0.0630915 4.1999
Spine1  8.91429 0.464507 -2.12539
HEad  -8.45128 1.80279 -1.24098
LeftShoulder1  4.08858 -7.05505 -32.644
LeftArm  -13.9472 15.1721 -14.1318
LeftForeArm  20.6734 -15.8618 -3.54817
LeftHand  -0.244104 0.0205437 5.32207
RightShoulder  3.87118 6.91802 31.1949
RightArm  -13.1998 -13.9997 17.4985
RightForeArm  5.1723 8.73564 5.05115
RightHand  -1.37776 4.2615 -16.7379
LeftUpLeg  1.0528 4.60664 4.39795
LeftLeg  0.0472711 4.06878 -3.02228
LeftFoot  0.420056 0.144339 -1.42648
LeftToes  -2.63786e-011 -1.12672e-010 -2.07835e-011
149
root  -26.7337 41.4718 -34.023 179.94 0.999466 178.798
RightUpLeg  0.346312 -6.70624 -2.88347
RightLeg  3.05022 -0.0425447 3.36515
RightFoot  -0.368486 0.444701 -4.64987
RightToes  1.74622e-010 0 -3.6325e-017
Spine  -4.19448 0.0300664 3.79263
Spine1  7.57335 0.392306 -2.07102
HEad  -7.07363 1.74467 -0.939328
LeftShoulder1  3.21172 -5.83254 -28.2619
LeftArm  -14.842 14.4723 -10.2805
LeftForeArm  20.3431 -17.4249 -3.38407
LeftHand  -0.244104 0.0205437 5.32207
RightShoulder  3.02651 5.59714 27.2294
RightArm  -14.0118 -13.3298 13.2109
RightForeArm  4.67334 8.28766 4.74744
RightHand  -1.35583 4.51865 -16.0633
LeftUpLeg  1.0947 4.58702 4.29416
LeftLeg  -0.306928 4.26828 -3.08457
LeftFoot  0.401704 0.116416 -1.15516
LeftToes  -2.63786e-011 -1.12672e-010 -2.07835e-011
